<svg width="170" height="170" viewBox="0 0 170 170" fill="none" xmlns="http://www.w3.org/2000/svg">
<rect width="170" height="170" rx="85" fill="white"/>
<path fill-rule="evenodd" clip-rule="evenodd" d="M40.8276 67.9204L24 52.4091V131H26.1034C34.2354 131 40.8276 124.518 40.8276 116.523V87.5682L53.4483 112.386C57.6551 122.727 65.4469 131 77.0503 131H122.398C135.433 131 146 120.728 146 108.057V103.156C146 91.4938 140.077 80.5835 130.174 74.0013L112.343 62.1511L93.8782 74.2984C84.1839 80.6763 78.3761 91.314 78.3761 102.693V108.057H93.7573V102.693C93.7573 96.2764 97.0323 90.2776 102.499 86.6812L112.299 80.2341L121.493 86.3443C127.204 90.1396 130.619 96.4311 130.619 103.156V108.057C130.619 112.47 126.938 116.048 122.398 116.048H77.0503C72.5099 116.048 68.8293 112.47 68.8293 108.057V62.9433C68.8293 58.5297 72.5099 54.9518 77.0503 54.9518H130.619L146 66.0367V60.6818C146 49.2596 136.582 40 124.966 40H77.0503C64.0153 40 53.4483 50.2721 53.4483 62.9433V79.2953L40.8276 67.9204Z" fill="black"/>
</svg>
